# xmcd
#
# Track frame offsets: 
#        150
#        15708
#        38770
#        59654
#        74036
#        102787
#        122000
#        129651
#        148815
#        163246
#        183947
#        199102
#        253690
#        269294
#        288617
#
# Disc length: 4080 seconds
#
# Revision: 1
# Processed by: cddbd v1.5.2PL0 Copyright (c) Steve Scherf et al.
# Submitted via: ExactAudioCopyFreeDBPlugin 1.0
#
DISCID=ee0fee0f
DTITLE=DYLAN.PL - Niepotrzebna Pogodynka, kiedy znasz kierunek wiatru 
DTITLE=CD2
DYEAR=2017
DGENRE=Blues
TTITLE0=Ramona (To Ramona)
TTITLE1=W szarych pętach dżdżu (Tangled Up in Blue)
TTITLE2=Romans w Durango (Romance in Durango)
TTITLE3=Żadnych ograniczeń (Love Minus Zero No Limit)
TTITLE4=Bez słowa (Ain`t talking)
TTITLE5=Izis (Isis)
TTITLE6=Ojciec nocy (Father of night)
TTITLE7=Pan z tamburynem (Mr.Tambourine Man)
TTITLE8=Czas mija z wolna (Time Passes Slowly)
TTITLE9=Jest mi miłość (Love Sick)
TTITLE10=Północ minęła (Soon after Midnight)
TTITLE11=Highlands (Highlands)
TTITLE12=Gdy przypłynie okręt nasz (When the Ship Comes In)
TTITLE13=Señor (Señor)
TTITLE14=Każde trawy źdźbło (Every Grain of Sand)
EXTD=
EXTT0=
EXTT1=
EXTT2=
EXTT3=
EXTT4=
EXTT5=
EXTT6=
EXTT7=
EXTT8=
EXTT9=
EXTT10=
EXTT11=
EXTT12=
EXTT13=
EXTT14=
PLAYORDER=
